<?xml version="1.0" standalone="no"?>
<!DOCTYPE svg PUBLIC "-//W3C//DTD SVG 20010904//EN"
 "http://www.w3.org/TR/2001/REC-SVG-20010904/DTD/svg10.dtd">
<svg version="1.0" xmlns="http://www.w3.org/2000/svg"
 width="520.000000pt" height="520.000000pt" viewBox="0 0 520.000000 520.000000"
 preserveAspectRatio="xMidYMid meet">
<metadata>
Created by potrace 1.11, written by Peter Selinger 2001-2013
</metadata>
<g transform="translate(0.000000,520.000000) scale(0.100000,-0.100000)"
fill="#000000" stroke="none">
<path d="M1608 3700 c-248 -45 -455 -197 -566 -417 -67 -130 -78 -221 -133
-1092 -24 -380 -20 -451 30 -558 77 -163 270 -255 473 -223 145 22 192 67 373
355 200 318 220 344 289 380 l60 30 466 0 466 0 60 -30 c69 -36 89 -62 289
-380 181 -288 228 -333 373 -355 203 -32 396 60 473 223 43 94 53 186 39 401
-58 956 -69 1063 -119 1192 -85 218 -277 391 -507 455 -62 18 -105 23 -199 23
-117 0 -124 -1 -257 -47 -75 -26 -154 -47 -175 -47 -21 0 -90 10 -153 22 -92
18 -150 22 -290 22 -140 0 -198 -4 -290 -22 -63 -12 -132 -22 -153 -22 -21 0
-99 20 -173 45 -114 39 -149 46 -232 50 -53 2 -118 0 -144 -5z"/>
</g>
</svg>
